# Blender v2.79 (sub 0) OBJ File: ''
# www.blender.org
o Bullet
v 0.000000 -0.150000 -0.000000
v -0.067081 -0.127597 -0.046352
v 0.025623 -0.127597 -0.075000
v -0.114126 -0.067083 -0.078860
v -0.134163 -0.078861 -0.000000
v 0.082917 -0.127597 -0.000000
v 0.025623 -0.127598 0.075000
v -0.067081 -0.127598 0.046351
v -0.150000 0.000000 -0.046351
v 0.043591 -0.067083 -0.127598
v -0.041460 -0.078861 -0.121352
v 0.000000 0.000000 -0.150000
v 0.141068 -0.067083 -0.000000
v 0.108540 -0.078861 -0.075000
v 0.150000 0.000000 -0.046351
v 0.043591 -0.067083 0.127597
v 0.108540 -0.078861 0.075000
v 0.092704 -0.000000 0.121353
v -0.114126 -0.067083 0.078859
v -0.041460 -0.078861 0.121351
v -0.092704 -0.000000 0.121353
v -0.092704 0.000000 -0.121353
v 0.092704 0.000000 -0.121353
v 0.150000 -0.000000 0.046351
v 0.000000 -0.000000 0.150000
v -0.150000 -0.000000 0.046351
v -0.043591 0.067083 -0.127597
v -0.108540 0.078861 -0.075000
v -0.025623 0.127598 -0.075000
v 0.114126 0.067083 -0.078859
v 0.041460 0.078861 -0.121351
v 0.067081 0.127598 -0.046351
v 0.114126 0.067083 0.078860
v 0.134163 0.078861 0.000000
v 0.067081 0.127597 0.046352
v -0.043591 0.067083 0.127598
v 0.041460 0.078861 0.121352
v -0.025623 0.127597 0.075000
v -0.141068 0.067083 0.000000
v -0.108540 0.078861 0.075000
v -0.082917 0.127597 0.000000
v 0.000000 0.150000 0.000000
vt 0.000000 1.000000
vt 0.000000 1.000000
vt 0.000000 1.000000
vt 0.000000 1.000000
vt 0.000000 1.000000
vt 0.000000 1.000000
vt 0.000000 1.000000
vt 0.000000 1.000000
vt 0.000000 1.000000
vt 0.000000 1.000000
vt 0.000000 1.000000
vt 0.000000 1.000000
vt 0.000000 1.000000
vt 0.000000 1.000000
vt 0.000000 1.000000
vt 0.000000 1.000000
vt 0.000000 1.000000
vt 0.000000 1.000000
vt 0.000000 1.000000
vt 0.000000 1.000000
vt 0.000000 1.000000
vt 0.000000 1.000000
vt 0.000000 1.000000
vt 0.000000 1.000000
vt 0.000000 1.000000
vt 0.000000 1.000000
vt 0.000000 1.000000
vt 0.000000 1.000000
vt 0.000000 1.000000
vt 0.000000 1.000000
vt 0.000000 1.000000
vt 0.000000 1.000000
vt 0.000000 1.000000
vt 0.000000 1.000000
vt 0.000000 1.000000
vt 0.000000 1.000000
vt 0.000000 1.000000
vt 0.000000 1.000000
vt 0.000000 1.000000
vt 0.000000 1.000000
vt 0.000000 1.000000
vt 0.000000 1.000000
vn -0.0974 -0.9440 -0.3153
vn -0.6821 -0.6778 -0.2745
vn 0.2558 -0.9468 -0.1954
vn 0.2558 -0.9468 0.1954
vn -0.0974 -0.9440 0.3153
vn -0.8965 -0.3441 -0.2792
vn -0.0235 -0.3304 -0.9435
vn 0.8801 -0.3436 -0.3277
vn 0.5553 -0.3357 0.7609
vn -0.5155 -0.3350 0.7887
vn -0.7879 -0.1297 -0.6019
vn 0.2929 -0.1262 -0.9478
vn 0.9913 -0.1320 -0.0000
vn 0.2929 -0.1262 0.9478
vn -0.7879 -0.1297 0.6019
vn -0.3921 0.6670 -0.6335
vn 0.4531 0.6688 -0.5894
vn 0.6821 0.6778 0.2745
vn -0.0366 0.6617 0.7488
vn -0.7065 0.6789 0.1998
vn -0.2558 0.9468 0.1954
vn -0.4726 0.8040 0.3610
vn -0.3921 0.6670 0.6335
vn 0.0974 0.9440 0.3153
vn 0.1787 0.7960 0.5783
vn 0.4531 0.6688 0.5894
vn 0.3168 0.9485 0.0000
vn 0.5878 0.8090 0.0000
vn 0.6821 0.6778 -0.2745
vn 0.0974 0.9440 -0.3153
vn 0.1787 0.7960 -0.5783
vn -0.0366 0.6617 -0.7488
vn -0.2558 0.9468 -0.1954
vn -0.4726 0.8040 -0.3610
vn -0.7065 0.6789 -0.1998
vn -0.8801 0.3436 0.3277
vn -0.7796 0.1935 0.5956
vn -0.5553 0.3357 0.7609
vn 0.0235 0.3304 0.9435
vn 0.2900 0.1884 0.9383
vn 0.5155 0.3350 0.7887
vn 0.8965 0.3441 0.2792
vn 0.9804 0.1969 0.0000
vn 0.8965 0.3441 -0.2792
vn 0.5155 0.3350 -0.7887
vn 0.2900 0.1884 -0.9383
vn 0.0235 0.3304 -0.9435
vn -0.5553 0.3357 -0.7609
vn -0.7796 0.1935 -0.5956
vn -0.8801 0.3436 -0.3277
vn -0.2929 0.1262 0.9478
vn -0.2900 -0.1884 0.9383
vn -0.0235 -0.3304 0.9435
vn 0.7879 0.1297 0.6019
vn 0.7796 -0.1935 0.5956
vn 0.8801 -0.3436 0.3277
vn 0.7879 0.1297 -0.6019
vn 0.7796 -0.1935 -0.5956
vn 0.5553 -0.3357 -0.7609
vn -0.2929 0.1262 -0.9478
vn -0.2900 -0.1884 -0.9383
vn -0.5155 -0.3350 -0.7887
vn -0.9913 0.1320 0.0000
vn -0.9804 -0.1969 -0.0000
vn -0.8965 -0.3441 0.2792
vn -0.4531 -0.6688 0.5894
vn -0.1787 -0.7960 0.5783
vn 0.0366 -0.6617 0.7488
vn 0.3921 -0.6670 0.6335
vn 0.4726 -0.8040 0.3610
vn 0.7065 -0.6789 0.1998
vn 0.7065 -0.6789 -0.1998
vn 0.4726 -0.8040 -0.3610
vn 0.3921 -0.6670 -0.6335
vn -0.6821 -0.6778 0.2745
vn -0.5878 -0.8090 -0.0000
vn -0.3168 -0.9485 -0.0000
vn 0.0366 -0.6617 -0.7488
vn -0.1787 -0.7960 -0.5783
vn -0.4531 -0.6688 -0.5894
s 1
f 1/1/1 2/2/1 3/3/1
f 4/4/2 2/2/2 5/5/2
f 1/1/3 3/3/3 6/6/3
f 1/1/4 6/6/4 7/7/4
f 1/1/5 7/7/5 8/8/5
f 4/4/6 5/5/6 9/9/6
f 10/10/7 11/11/7 12/12/7
f 13/13/8 14/14/8 15/15/8
f 16/16/9 17/17/9 18/18/9
f 19/19/10 20/20/10 21/21/10
f 4/4/11 9/9/11 22/22/11
f 10/10/12 12/12/12 23/23/12
f 13/13/13 15/15/13 24/24/13
f 16/16/14 18/18/14 25/25/14
f 19/19/15 21/21/15 26/26/15
f 27/27/16 28/28/16 29/29/16
f 30/30/17 31/31/17 32/32/17
f 33/33/18 34/34/18 35/35/18
f 36/36/19 37/37/19 38/38/19
f 39/39/20 40/40/20 41/41/20
f 41/41/21 38/38/21 42/42/21
f 41/41/22 40/40/22 38/38/22
f 40/40/23 36/36/23 38/38/23
f 38/38/24 35/35/24 42/42/24
f 38/38/25 37/37/25 35/35/25
f 37/37/26 33/33/26 35/35/26
f 35/35/27 32/32/27 42/42/27
f 35/35/28 34/34/28 32/32/28
f 34/34/29 30/30/29 32/32/29
f 32/32/30 29/29/30 42/42/30
f 32/32/31 31/31/31 29/29/31
f 31/31/32 27/27/32 29/29/32
f 29/29/33 41/41/33 42/42/33
f 29/29/34 28/28/34 41/41/34
f 28/28/35 39/39/35 41/41/35
f 26/26/36 40/40/36 39/39/36
f 26/26/37 21/21/37 40/40/37
f 21/21/38 36/36/38 40/40/38
f 25/25/39 37/37/39 36/36/39
f 25/25/40 18/18/40 37/37/40
f 18/18/41 33/33/41 37/37/41
f 24/24/42 34/34/42 33/33/42
f 24/24/43 15/15/43 34/34/43
f 15/15/44 30/30/44 34/34/44
f 23/23/45 31/31/45 30/30/45
f 23/23/46 12/12/46 31/31/46
f 12/12/47 27/27/47 31/31/47
f 22/22/48 28/28/48 27/27/48
f 22/22/49 9/9/49 28/28/49
f 9/9/50 39/39/50 28/28/50
f 21/21/51 25/25/51 36/36/51
f 21/21/52 20/20/52 25/25/52
f 20/20/53 16/16/53 25/25/53
f 18/18/54 24/24/54 33/33/54
f 18/18/55 17/17/55 24/24/55
f 17/17/56 13/13/56 24/24/56
f 15/15/57 23/23/57 30/30/57
f 15/15/58 14/14/58 23/23/58
f 14/14/59 10/10/59 23/23/59
f 12/12/60 22/22/60 27/27/60
f 12/12/61 11/11/61 22/22/61
f 11/11/62 4/4/62 22/22/62
f 9/9/63 26/26/63 39/39/63
f 9/9/64 5/5/64 26/26/64
f 5/5/65 19/19/65 26/26/65
f 8/8/66 20/20/66 19/19/66
f 8/8/67 7/7/67 20/20/67
f 7/7/68 16/16/68 20/20/68
f 7/7/69 17/17/69 16/16/69
f 7/7/70 6/6/70 17/17/70
f 6/6/71 13/13/71 17/17/71
f 6/6/72 14/14/72 13/13/72
f 6/6/73 3/3/73 14/14/73
f 3/3/74 10/10/74 14/14/74
f 5/5/75 8/8/75 19/19/75
f 5/5/76 2/2/76 8/8/76
f 2/2/77 1/1/77 8/8/77
f 3/3/78 11/11/78 10/10/78
f 3/3/79 2/2/79 11/11/79
f 2/2/80 4/4/80 11/11/80
