# Blender v2.79 (sub 0) OBJ File: 'models.blend'
# www.blender.org
o Dome_Icosphere
v -1.698977 6.094432 -26.863922
v -16.698908 6.094427 -21.990063
v -25.969481 6.094491 -34.749802
v -16.698908 6.094427 -47.509541
v -1.698977 6.094432 -42.635681
v -8.407267 19.511023 -21.990063
v -23.407196 19.511017 -26.863922
v -23.407196 19.511017 -42.635681
v -8.407267 19.511023 -47.509541
v 0.863306 19.510960 -34.749802
v -12.553087 27.802725 -34.749802
v -14.989921 0.042909 -24.691074
v -3.165208 0.042913 -28.533220
v -8.610055 4.916660 -22.614628
v -3.165208 0.042913 -40.966385
v -22.298141 0.042964 -34.749802
v -22.875927 4.916682 -27.249847
v -14.989921 0.042909 -44.808529
v -22.875927 4.916682 -42.249756
v -8.610055 4.916660 -46.884975
v 1.688063 10.982771 -31.723101
v 1.688063 10.982771 -37.776505
v -12.553087 12.802725 -19.749802
v -3.736303 12.802725 -22.614552
v -26.818954 12.802725 -30.114613
v -21.369871 12.802725 -22.614552
v -21.369871 12.802725 -46.885052
v -26.818954 12.802725 -39.384991
v -3.736303 12.802725 -46.885052
v -12.553087 12.802725 -49.749802
v -2.230247 20.688768 -27.249847
v -16.496120 20.688789 -22.614628
v -25.312805 20.688763 -34.749802
v -16.496120 20.688789 -46.884975
v -2.230247 20.688768 -42.249756
v -10.116254 25.562540 -27.249872
v -4.667140 25.562500 -34.749802
v -18.932928 25.562538 -30.114632
v -18.932928 25.562538 -39.384972
v -10.116254 25.562540 -42.249729
v 1.539476 0.042913 -30.267071
v 1.539476 0.042913 -38.193714
v -0.644317 6.637044 -40.149136
v 1.663082 9.143536 -38.004448
v 1.660493 8.952937 -31.471533
v -0.552792 6.876457 -29.380138
v 1.539476 0.042913 -36.761845
v 1.539476 0.042913 -31.400326
v 1.583561 3.288635 -31.412321
v 1.594638 4.104259 -31.532265
v 1.603272 4.739964 -31.712181
v 1.611092 5.315697 -32.191959
v 1.614676 5.579575 -32.611767
v 1.618260 5.843453 -33.187500
v 1.618586 5.867442 -33.595310
v 1.619074 5.903425 -34.003120
v 1.618750 5.879437 -34.542870
v 1.617934 5.819465 -34.938686
v 1.615816 5.663538 -35.418468
v 1.610929 5.303702 -36.006195
v 1.602784 4.703980 -36.461987
v 1.594313 4.080269 -36.629906
v 1.583235 3.264647 -36.761845
v 1.539476 0.042913 -35.598385
v 1.539476 0.042913 -32.575783
v 1.712781 12.802725 -30.114613
v 1.712781 12.802725 -39.384991
v 1.639167 7.382682 -40.056725
v 1.634945 7.071898 -29.404360
v 2.532933 10.982771 -31.723101
v 2.532933 10.982771 -37.776505
v 2.507953 9.143536 -38.004448
v 2.505363 8.952937 -31.471533
vt 0.846414 0.377872
vt 0.692827 0.262022
vt 1.000000 0.262022
vt 0.941334 0.074578
vt 0.209620 0.703600
vt 0.091060 0.728118
vt 0.137705 0.598354
vt 0.779788 0.470926
vt 0.874561 0.403566
vt 0.890170 0.522456
vt 0.444447 0.700736
vt 0.352938 0.718829
vt 0.377234 0.592334
vt 0.676210 0.711360
vt 0.567535 0.724061
vt 0.646089 0.601812
vt 0.584754 0.329792
vt 0.593674 0.212552
vt 0.692827 0.272049
vt 0.278268 0.594940
vt 0.767583 0.595933
vt 0.509862 0.595567
vt 0.377260 0.202892
vt 0.373523 0.076767
vt 0.471713 0.137962
vt 0.258135 0.000000
vt 0.352453 0.083378
vt 0.232040 0.083378
vt 0.029097 0.077260
vt 0.134624 0.009901
vt 0.097416 0.128790
vt 0.779790 0.720942
vt 0.890172 0.669412
vt 0.874565 0.788301
vt 0.578092 0.492753
vt 0.455789 0.470085
vt 0.558598 0.398779
vt 0.584756 0.083509
vt 0.495488 0.006596
vt 0.632144 0.000000
vt 0.315243 0.202266
vt 0.232040 0.321154
vt 0.194831 0.202266
vt 0.352453 0.321155
vt 0.258135 0.404532
vt 0.097416 0.275743
vt 0.134624 0.394632
vt 0.029097 0.327272
vt 0.000000 0.202266
vt 0.988348 0.595935
vt 0.997152 0.714824
vt 0.201700 0.473450
vt 0.079357 0.496909
vt 0.118038 0.404532
vt 0.692827 0.127287
vt 0.676210 0.480190
vt 0.352453 0.487253
vt 0.318496 0.491102
vt 0.014492 0.606628
vt 0.002337 0.486840
vt 0.676210 0.669412
vt 0.676210 0.522455
vt 0.997152 0.477044
vt 0.318496 0.722595
vt 0.000000 0.717678
vt 0.651645 0.807270
vt 0.468942 0.798894
vt 0.731463 0.387031
vt 0.739665 0.398779
vt 0.960496 0.387031
vt 0.195046 0.802732
vt 0.751493 0.074578
vt 0.029799 0.813829
vt 0.557610 0.299045
vt 0.414085 0.215652
vt 0.352453 0.298741
vt 0.833457 0.000000
vt 0.879609 0.000000
vt 0.749783 0.979705
vt 0.812063 0.886624
vt 0.812063 1.000000
vt 0.748352 0.788301
vt 0.748190 0.873855
vt 0.713492 0.886282
vt 0.749783 0.991072
vt 0.676210 0.991072
vt 0.782126 0.872761
vt 0.812063 0.788301
vt 0.331396 0.508108
vt 0.318496 0.404538
vt 0.331396 0.404532
vt 0.481770 0.271460
vt 0.476098 0.269094
vt 0.420877 0.206568
vt 0.478772 0.175756
vt 0.558411 0.224462
vt 0.461521 0.199037
vt 0.545992 0.254204
vt 0.558612 0.296522
vt 0.331382 0.537145
vt 0.318496 0.508384
vt 0.344297 0.500490
vt 0.331650 0.532673
vt 0.331650 0.500797
vt 0.331396 0.404532
vt 0.344297 0.500490
vt 0.331396 0.500490
vt 0.516024 0.398779
vt 0.914860 0.000000
vt 0.897557 0.000000
vt 0.793829 0.000000
vt 0.815692 0.000000
vt 0.318496 0.508113
vt 0.492797 0.385562
vt 0.502880 0.332027
vt 0.477888 0.376444
vt 0.407352 0.333305
vt 0.388514 0.321784
vt 0.432316 0.289312
vt 0.507622 0.319924
vt 0.510181 0.309796
vt 0.440372 0.279236
vt 0.447414 0.272070
vt 0.508330 0.298074
vt 0.504852 0.291093
vt 0.458057 0.267548
vt 0.468577 0.267363
vt 0.499322 0.282857
vt 0.494143 0.279248
vt 0.489057 0.275476
vt 0.318496 0.537416
vt 0.344297 0.532367
vt 0.344297 0.404532
vn -0.0000 -1.0000 0.0000
vn 0.0247 -0.3304 0.9435
vn -0.8897 -0.3304 0.3151
vn -0.5746 -0.3304 -0.7488
vn 0.5346 -0.3304 -0.7779
vn 0.8026 -0.1256 0.5831
vn -0.3066 -0.1256 0.9435
vn -0.9921 -0.1256 0.0000
vn -0.3066 -0.1256 -0.9435
vn 0.8026 -0.1256 -0.5831
vn 0.4089 0.6617 0.6284
vn -0.4713 0.6617 0.5831
vn -0.7002 0.6617 -0.2680
vn 0.0385 0.6617 -0.7488
vn 0.7240 0.6617 -0.1947
vn 0.2680 0.9435 -0.1947
vn 0.4911 0.7947 -0.3568
vn 0.4089 0.6617 -0.6284
vn -0.1024 0.9435 -0.3151
vn -0.1876 0.7947 -0.5773
vn -0.4713 0.6617 -0.5831
vn -0.3313 0.9435 0.0000
vn -0.6071 0.7947 0.0000
vn -0.7002 0.6617 0.2680
vn -0.1024 0.9435 0.3151
vn -0.1876 0.7947 0.5773
vn 0.0385 0.6617 0.7488
vn 0.2680 0.9435 0.1947
vn 0.4911 0.7947 0.3568
vn 0.7240 0.6617 0.1947
vn 0.8897 0.3304 -0.3151
vn 0.7947 0.1876 -0.5773
vn 0.5746 0.3304 -0.7488
vn -0.0247 0.3304 -0.9435
vn -0.3035 0.1876 -0.9342
vn -0.5346 0.3304 -0.7779
vn -0.9050 0.3304 -0.2680
vn -0.9822 0.1876 0.0000
vn -0.9050 0.3304 0.2680
vn -0.5346 0.3304 0.7779
vn -0.3035 0.1876 0.9342
vn -0.0247 0.3304 0.9435
vn 0.5746 0.3304 0.7488
vn 0.7947 0.1876 0.5773
vn 0.8897 0.3304 0.3151
vn 0.3066 0.1256 -0.9435
vn 0.3035 -0.1876 -0.9342
vn 0.0247 -0.3304 -0.9435
vn -0.8026 0.1256 -0.5831
vn -0.7947 -0.1876 -0.5773
vn -0.8897 -0.3304 -0.3151
vn -0.8026 0.1256 0.5831
vn -0.7947 -0.1876 0.5773
vn -0.5746 -0.3304 0.7488
vn 0.3066 0.1256 0.9435
vn 0.3035 -0.1876 0.9342
vn 0.5346 -0.3304 0.7779
vn 0.9921 0.1256 0.0000
vn 0.5338 -0.3426 -0.7731
vn 0.2402 -0.6293 -0.7391
vn 0.0117 -0.4048 -0.9143
vn -0.5203 -0.4663 -0.7155
vn -0.5719 -0.7073 -0.4155
vn -0.8252 -0.5006 -0.2617
vn -0.8252 -0.5006 0.2617
vn -0.5719 -0.7073 0.4155
vn -0.5203 -0.4663 0.7155
vn 0.0117 -0.4048 0.9143
vn 0.2402 -0.6293 0.7391
vn 0.5337 -0.3426 0.7731
vn 0.8989 -0.3046 0.3148
vn 0.8989 -0.3046 -0.3148
vn 0.3458 -0.0159 0.9382
vn 0.0000 0.1230 -0.9924
vn 0.5058 -0.0870 -0.8583
vn 0.0000 0.1230 0.9924
vn 0.0000 -0.9996 -0.0292
vn 0.9999 -0.0136 -0.0000
vn 0.0000 1.0000 0.0000
vn 0.0219 -0.1221 0.9923
vn 0.1192 -0.2458 -0.9620
s off
f 16/1/1 18/2/1 12/3/1
f 18/2/1 13/4/1 12/3/1
f 2/5/2 14/6/2 23/7/2
f 3/8/3 17/9/3 25/10/3
f 4/11/4 19/12/4 27/13/4
f 5/14/5 20/15/5 29/16/5
f 1/17/6 66/18/6 24/19/6
f 2/5/7 23/7/7 26/20/7
f 3/8/8 25/10/8 28/21/8
f 4/11/9 27/13/9 30/22/9
f 5/23/10 29/24/10 67/25/10
f 6/26/11 31/27/11 36/28/11
f 7/29/12 32/30/12 38/31/12
f 8/32/13 33/33/13 39/34/13
f 9/35/14 34/36/14 40/37/14
f 10/38/15 35/39/15 37/40/15
f 37/41/16 40/42/16 11/43/16
f 37/41/17 35/44/17 40/42/17
f 35/44/18 9/45/18 40/42/18
f 40/42/19 39/46/19 11/43/19
f 40/42/20 34/47/20 39/46/20
f 34/47/21 8/48/21 39/46/21
f 39/46/22 38/31/22 11/43/22
f 39/46/23 33/49/23 38/31/23
f 33/33/24 7/50/24 38/51/24
f 38/31/25 36/28/25 11/43/25
f 38/31/26 32/30/26 36/28/26
f 32/52/27 6/53/27 36/54/27
f 36/28/28 37/41/28 11/43/28
f 36/28/29 31/27/29 37/41/29
f 31/55/30 10/38/30 37/40/30
f 67/25/31 35/39/31 10/38/31
f 67/25/32 29/24/32 35/39/32
f 29/16/33 9/35/33 35/56/33
f 30/22/34 34/36/34 9/35/34
f 30/22/35 27/13/35 34/36/35
f 27/13/36 8/57/36 34/36/36
f 28/21/37 33/33/37 8/32/37
f 28/21/38 25/10/38 33/33/38
f 25/10/39 7/50/39 33/33/39
f 26/20/40 32/52/40 7/58/40
f 26/20/41 23/7/41 32/52/41
f 23/7/42 6/53/42 32/52/42
f 24/59/43 31/60/43 6/53/43
f 24/19/44 66/18/44 31/55/44
f 66/18/45 10/38/45 31/55/45
f 29/16/46 30/22/46 9/35/46
f 29/16/47 20/15/47 30/22/47
f 20/15/48 4/11/48 30/22/48
f 27/61/49 28/21/49 8/32/49
f 27/61/50 19/62/50 28/21/50
f 19/62/51 3/8/51 28/21/51
f 25/10/52 26/63/52 7/50/52
f 25/10/53 17/9/53 26/63/53
f 17/64/54 2/5/54 26/20/54
f 23/7/55 24/59/55 6/53/55
f 23/7/56 14/6/56 24/59/56
f 14/6/57 1/65/57 24/59/57
f 66/18/58 67/25/58 10/38/58
f 15/66/59 20/15/59 5/14/59
f 15/66/60 18/67/60 20/15/60
f 18/67/61 4/11/61 20/15/61
f 18/67/62 19/12/62 4/11/62
f 18/2/63 16/1/63 19/68/63
f 16/69/64 3/8/64 19/62/64
f 16/69/65 17/9/65 3/8/65
f 16/1/66 12/3/66 17/70/66
f 12/71/67 2/5/67 17/64/67
f 15/72/1 13/4/1 18/2/1
f 12/71/68 14/6/68 2/5/68
f 12/71/69 13/73/69 14/6/69
f 13/73/70 1/65/70 14/6/70
f 1/17/71 46/74/71 66/18/71
f 5/23/72 43/75/72 15/76/72
f 64/77/1 65/78/1 13/4/1
f 41/79/73 46/80/73 13/81/73
f 67/82/74 68/83/74 43/84/74
f 43/84/75 42/85/75 15/86/75
f 46/80/76 69/87/76 66/88/76
f 44/89/77 73/90/77 45/91/77
f 57/92/78 58/93/78 68/94/78
f 22/95/78 66/18/78 21/96/78
f 44/97/78 67/25/78 22/95/78
f 45/98/78 66/18/78 69/99/78
f 45/98/78 68/94/78 44/97/78
f 22/100/74 72/101/74 44/89/74
f 21/102/76 73/103/76 70/104/76
f 21/105/79 71/106/79 22/107/79
f 1/17/71 13/108/71 46/74/71
f 5/23/72 67/25/72 43/75/72
f 41/109/1 13/4/1 48/110/1
f 13/4/1 15/72/1 64/77/1
f 48/110/1 13/4/1 65/78/1
f 15/72/1 42/111/1 47/112/1
f 47/112/1 64/77/1 15/72/1
f 41/79/80 69/87/80 46/80/80
f 43/84/81 68/83/81 42/85/81
f 44/89/77 72/113/77 73/90/77
f 69/99/78 41/114/78 49/115/78
f 41/114/78 48/116/78 49/115/78
f 47/117/78 42/118/78 63/119/78
f 42/118/78 68/94/78 63/119/78
f 69/99/78 49/115/78 50/120/78
f 69/99/78 50/120/78 51/121/78
f 62/122/78 63/119/78 68/94/78
f 61/123/78 62/122/78 68/94/78
f 69/99/78 51/121/78 52/124/78
f 69/99/78 52/124/78 53/125/78
f 60/126/78 61/123/78 68/94/78
f 59/127/78 60/126/78 68/94/78
f 69/99/78 53/125/78 54/128/78
f 54/128/78 55/129/78 69/99/78
f 55/129/78 56/130/78 69/99/78
f 58/93/78 59/127/78 68/94/78
f 69/99/78 56/130/78 68/94/78
f 56/130/78 57/92/78 68/94/78
f 22/95/78 67/25/78 66/18/78
f 44/97/78 68/94/78 67/25/78
f 45/98/78 21/96/78 66/18/78
f 45/98/78 69/99/78 68/94/78
f 22/100/74 71/131/74 72/101/74
f 21/102/76 45/132/76 73/103/76
f 21/105/79 70/133/79 71/106/79
o Arch_Cube.002
v 1.088908 0.022183 -31.457102
v 1.088908 3.220663 -31.457102
v 1.088908 0.022183 -32.600559
v 1.088908 3.220663 -32.600559
v 2.112418 0.022183 -31.457102
v 2.112418 3.220663 -31.457102
v 2.112418 0.022183 -32.600559
v 2.112418 3.220663 -32.600559
v 1.100212 4.027896 -31.571472
v 1.100212 3.663248 -32.645969
v 2.123723 3.663248 -32.645969
v 2.123723 4.027896 -31.571472
v 1.088908 4.666351 -31.761539
v 1.088908 4.054827 -32.698204
v 2.112418 4.054827 -32.698204
v 2.112418 4.666351 -31.761539
v 1.088908 5.232004 -32.228420
v 1.088908 4.358657 -32.884281
v 2.112418 4.358657 -32.884281
v 2.112418 5.232004 -32.228420
v 1.088908 5.545629 -32.723938
v 1.088908 4.579359 -33.207184
v 2.112418 4.579359 -33.207184
v 2.112418 5.545629 -32.723938
v 1.088908 5.758215 -33.294472
v 1.088908 4.696112 -33.394131
v 2.112418 4.696112 -33.394131
v 2.112418 5.758215 -33.294472
v 1.088908 5.817126 -34.045914
v 1.088908 4.750994 -34.037651
v 2.112418 4.750994 -34.037651
v 2.112418 5.817126 -34.045914
v 2.112418 0.022183 -36.758781
v 2.112418 3.220663 -36.758781
v 2.112418 0.022183 -35.615322
v 2.112418 3.220663 -35.615322
v 1.088908 0.022183 -36.758781
v 1.088908 3.220663 -36.758781
v 1.088908 0.022183 -35.615322
v 1.088908 3.220663 -35.615322
v 2.127754 4.011041 -36.634705
v 2.127754 3.646393 -35.560207
v 1.104244 3.646393 -35.560207
v 1.104244 4.011041 -36.634705
v 2.112418 4.666351 -36.454346
v 2.112418 4.054827 -35.517677
v 1.088908 4.054827 -35.517677
v 1.088908 4.666351 -36.454342
v 2.112418 5.232004 -35.987461
v 2.112418 4.358657 -35.331600
v 1.088908 4.358657 -35.331600
v 1.088908 5.232004 -35.987461
v 2.112418 5.545629 -35.491943
v 2.112418 4.579359 -35.008698
v 1.088908 4.579359 -35.008698
v 1.088908 5.545629 -35.491943
v 2.112418 5.758215 -34.921413
v 2.112418 4.696112 -34.821754
v 1.088908 4.696112 -34.821754
v 1.088908 5.758215 -34.921413
v 2.112418 5.817126 -34.169968
v 2.112418 4.750994 -34.178234
v 1.088908 4.750994 -34.178234
v 1.088908 5.817126 -34.169968
vt 0.464057 0.785862
vt 0.640938 0.616368
vt 0.640938 0.785862
vt 0.000000 0.830689
vt 0.176881 1.000000
vt 0.000000 1.000000
vt 0.143588 0.169493
vt 0.320469 0.000000
vt 0.320469 0.169493
vt 0.819772 0.486501
vt 0.996653 0.653892
vt 0.819772 0.653892
vt 0.464057 0.955355
vt 0.640938 0.955355
vt 0.176881 0.830689
vt 0.001954 0.806949
vt 0.178834 0.806949
vt 0.119114 0.176225
vt 0.063639 0.045126
vt 0.098948 0.016953
vt 0.143588 0.000000
vt 0.464057 0.616368
vt 0.419417 0.768908
vt 0.439583 0.609637
vt 0.994699 0.446917
vt 0.996653 0.486501
vt 0.640938 0.695609
vt 0.817819 0.626404
vt 0.817819 0.695609
vt 0.384109 0.740735
vt 0.417927 0.601894
vt 0.819772 0.417927
vt 0.996653 0.417927
vt 0.176881 0.785861
vt 0.080655 0.211549
vt 0.015014 0.187782
vt 0.032358 0.114332
vt 0.817819 0.417927
vt 0.994699 0.390345
vt 0.994699 0.417927
vt 0.097458 0.183967
vt 0.352827 0.671530
vt 0.401124 0.574312
vt 0.068450 0.259413
vt 0.003258 0.272351
vt 0.335483 0.598080
vt 0.388919 0.526449
vt 0.640938 0.626404
vt 0.817819 0.552954
vt 0.817819 0.390345
vt 0.994699 0.342482
vt 0.640938 0.468384
vt 0.817819 0.356999
vt 0.817819 0.468384
vt 0.323727 0.513511
vt 0.382463 0.498738
vt 0.640938 0.552954
vt 0.817819 0.342482
vt 0.994699 0.314771
vt 0.817819 0.314771
vt 0.994699 0.219383
vt 0.061994 0.287123
vt 0.000000 0.383737
vt 0.320469 0.402125
vt 0.379428 0.403350
vt 0.143588 0.785861
vt 0.320469 0.616368
vt 0.320469 0.785861
vt 0.823119 0.741537
vt 1.000000 0.908928
vt 0.823119 0.908928
vt 0.464057 0.169493
vt 0.640938 0.000000
vt 0.640938 0.169493
vt 0.820469 0.864920
vt 0.643588 0.695609
vt 0.820469 0.695609
vt 0.287177 0.955355
vt 0.464057 0.785862
vt 0.464057 0.955355
vt 0.997350 0.717974
vt 1.000000 0.741537
vt 0.440516 0.177663
vt 0.384109 0.045126
vt 0.420350 0.018391
vt 0.464057 0.000000
vt 0.143588 0.616368
vt 0.099881 0.767471
vt 0.120047 0.608199
vt 0.643588 0.864920
vt 0.817819 0.905906
vt 0.640938 0.905906
vt 0.817819 0.000000
vt 0.640938 0.069205
vt 0.640938 0.000000
vt 0.063640 0.740735
vt 0.097458 0.601894
vt 0.643588 0.939355
vt 0.823119 0.695609
vt 1.000000 0.695609
vt 0.401124 0.211549
vt 0.335483 0.187782
vt 0.352827 0.114332
vt 0.994699 0.000000
vt 0.817819 0.027582
vt 0.817819 0.000000
vt 0.417927 0.183967
vt 0.032358 0.671530
vt 0.080656 0.574313
vt 0.388919 0.259413
vt 0.323727 0.272351
vt 0.015014 0.598080
vt 0.068450 0.526449
vt 0.817819 0.069205
vt 0.640938 0.142655
vt 0.994699 0.075445
vt 0.817819 0.075445
vt 0.640938 0.227225
vt 0.817819 0.338610
vt 0.640938 0.338610
vt 0.003258 0.513511
vt 0.061994 0.498738
vt 0.817819 0.142655
vt 0.817819 0.103156
vt 0.994699 0.103156
vt 0.817819 0.198544
vt 0.382463 0.287123
vt 0.320469 0.383736
vt 0.000000 0.402125
vt 0.058959 0.403350
vt 0.058959 0.382512
vt 0.817819 0.219383
vt 0.640938 0.356999
vt 0.464057 0.785862
vt 0.817819 0.446917
vt 0.000000 0.785862
vt 0.287177 0.785862
vt 0.820469 0.717974
vt 0.820469 0.939355
vt 0.994699 0.027582
vt 0.817819 0.227225
vt 0.994699 0.198544
vt 0.379428 0.382511
vn -1.0000 0.0000 0.0000
vn 0.0000 0.0000 -1.0000
vn 1.0000 0.0000 0.0000
vn 0.0000 0.0000 1.0000
vn 0.0000 -1.0000 0.0000
vn 0.0000 -0.1021 -0.9948
vn 0.9999 0.0161 -0.0055
vn 0.9999 -0.0140 0.0000
vn -0.9997 0.0247 -0.0084
vn 0.0000 0.1403 0.9901
vn 0.0000 0.6366 0.7712
vn -0.9995 -0.0265 0.0173
vn 0.0000 0.2853 0.9584
vn 0.0000 -0.1322 -0.9912
vn 0.0000 -0.5223 -0.8528
vn 0.0000 0.8450 0.5348
vn 0.0000 -0.8256 -0.5643
vn 0.0000 0.9969 0.0782
vn 0.0000 0.9371 0.3492
vn 0.0000 -0.8482 -0.5297
vn 0.0000 -0.9964 -0.0850
vn 0.0000 -0.1284 0.9917
vn -0.9997 -0.0214 -0.0073
vn -0.9998 0.0194 0.0000
vn 0.9993 -0.0345 -0.0117
vn 0.0000 0.1551 -0.9879
vn 0.0000 0.6366 -0.7712
vn 0.9991 0.0351 0.0229
vn 0.0000 0.2654 -0.9641
vn 0.0000 -0.1036 0.9946
vn 0.0000 -0.5223 0.8528
vn 0.0000 0.8450 -0.5348
vn 0.0000 -0.8256 0.5643
vn 0.0000 0.9969 -0.0782
vn 0.0000 0.9371 -0.3492
vn 0.0000 -0.8482 0.5297
vn 0.0000 -0.9964 0.0850
vn 0.0000 1.0000 0.0000
vn 0.9995 0.0265 -0.0173
vn 0.9997 -0.0247 0.0084
vn -0.9999 0.0140 0.0000
vn -0.9999 -0.0161 0.0055
vn -0.9991 -0.0351 -0.0229
vn -0.9993 0.0345 0.0117
vn 0.9998 -0.0194 -0.0000
vn 0.9997 0.0214 0.0073
s off
f 75/134/82 76/135/82 74/136/82
f 77/137/83 80/138/83 76/139/83
f 81/140/84 78/141/84 80/142/84
f 79/143/85 74/144/85 78/145/85
f 80/146/86 74/136/86 76/147/86
f 81/148/87 83/149/87 84/150/87
f 84/151/88 89/152/88 85/153/88
f 81/140/89 85/153/89 79/154/89
f 77/155/90 82/156/90 83/157/90
f 79/143/91 82/158/91 75/159/91
f 89/160/92 90/161/92 86/162/92
f 83/157/93 86/163/93 87/164/93
f 82/158/94 89/165/94 86/166/94
f 83/149/95 88/167/95 84/150/95
f 92/168/84 97/169/84 93/170/84
f 87/171/96 92/172/96 88/173/96
f 88/174/84 93/170/84 89/152/84
f 87/164/82 90/175/82 91/176/82
f 96/177/84 101/178/84 97/169/84
f 91/176/82 94/179/82 95/180/82
f 93/181/97 94/182/97 90/161/97
f 91/183/98 96/184/98 92/172/98
f 101/185/99 102/186/99 98/187/99
f 95/180/82 98/188/82 99/189/82
f 97/190/100 98/187/100 94/182/100
f 95/191/101 100/192/101 96/184/101
f 99/193/102 104/194/102 100/192/102
f 100/195/84 105/196/84 101/178/84
f 99/189/82 102/197/82 103/198/82
f 107/199/84 108/200/84 106/201/84
f 109/202/85 112/203/85 108/204/85
f 113/205/82 110/206/82 112/207/82
f 111/208/83 106/209/83 110/210/83
f 112/211/86 106/212/86 108/213/86
f 109/202/103 116/214/103 113/215/103
f 116/216/104 121/217/104 117/218/104
f 113/205/105 117/218/105 111/219/105
f 109/220/106 114/221/106 115/222/106
f 107/223/107 117/224/107 114/225/107
f 121/226/108 122/227/108 118/228/108
f 115/222/109 118/229/109 119/230/109
f 117/224/110 118/231/110 114/225/110
f 116/214/111 119/232/111 120/233/111
f 124/234/82 129/235/82 125/236/82
f 119/237/112 124/238/112 120/239/112
f 120/240/82 125/236/82 121/217/82
f 119/230/84 122/241/84 123/242/84
f 128/243/82 133/244/82 129/235/82
f 123/242/84 126/245/84 127/246/84
f 125/247/113 126/248/113 122/227/113
f 124/238/114 127/249/114 128/250/114
f 130/251/115 137/252/115 134/253/115
f 127/246/84 130/254/84 131/255/84
f 129/256/116 130/251/116 126/248/116
f 127/249/117 132/257/117 128/250/117
f 131/258/118 136/259/118 132/257/118
f 132/260/82 137/261/82 133/244/82
f 131/255/84 134/262/84 135/263/84
f 135/263/84 105/196/84 104/264/84
f 136/259/86 104/194/86 103/265/86
f 137/261/82 103/198/82 102/197/82
f 134/253/119 102/186/119 105/266/119
f 75/134/82 77/155/82 76/135/82
f 77/137/83 81/148/83 80/138/83
f 81/140/84 79/154/84 78/141/84
f 79/143/85 75/159/85 74/144/85
f 80/146/86 78/267/86 74/136/86
f 81/148/87 77/137/87 83/149/87
f 84/151/120 88/174/120 89/152/120
f 81/140/121 84/151/121 85/153/121
f 77/155/122 75/134/122 82/156/122
f 79/143/91 85/268/91 82/158/91
f 89/160/92 93/181/92 90/161/92
f 83/157/123 82/156/123 86/163/123
f 82/158/94 85/268/94 89/165/94
f 83/149/95 87/269/95 88/167/95
f 92/168/84 96/177/84 97/169/84
f 87/171/96 91/183/96 92/172/96
f 88/174/84 92/168/84 93/170/84
f 87/164/82 86/163/82 90/175/82
f 96/177/84 100/195/84 101/178/84
f 91/176/82 90/175/82 94/179/82
f 93/181/97 97/190/97 94/182/97
f 91/183/98 95/191/98 96/184/98
f 101/185/99 105/266/99 102/186/99
f 95/180/82 94/179/82 98/188/82
f 97/190/100 101/185/100 98/187/100
f 95/191/101 99/193/101 100/192/101
f 99/193/102 103/265/102 104/194/102
f 100/195/84 104/264/84 105/196/84
f 99/189/82 98/188/82 102/197/82
f 107/199/84 109/220/84 108/200/84
f 109/202/85 113/215/85 112/203/85
f 113/205/82 111/219/82 110/206/82
f 111/208/83 107/223/83 106/209/83
f 112/211/86 110/270/86 106/212/86
f 109/202/103 115/271/103 116/214/103
f 116/216/124 120/240/124 121/217/124
f 113/205/125 116/216/125 117/218/125
f 109/220/126 107/199/126 114/221/126
f 107/223/107 111/208/107 117/224/107
f 121/226/108 125/247/108 122/227/108
f 115/222/127 114/221/127 118/229/127
f 117/224/110 121/272/110 118/231/110
f 116/214/111 115/271/111 119/232/111
f 124/234/82 128/243/82 129/235/82
f 119/237/112 123/273/112 124/238/112
f 120/240/82 124/234/82 125/236/82
f 119/230/84 118/229/84 122/241/84
f 128/243/82 132/260/82 133/244/82
f 123/242/84 122/241/84 126/245/84
f 125/247/113 129/256/113 126/248/113
f 124/238/114 123/273/114 127/249/114
f 130/251/115 133/274/115 137/252/115
f 127/246/84 126/245/84 130/254/84
f 129/256/116 133/274/116 130/251/116
f 127/249/117 131/258/117 132/257/117
f 131/258/118 135/275/118 136/259/118
f 132/260/82 136/276/82 137/261/82
f 131/255/84 130/254/84 134/262/84
f 135/263/84 134/262/84 105/196/84
f 136/259/86 135/275/86 104/194/86
f 137/261/82 136/276/82 103/198/82
f 134/253/119 137/252/119 102/186/119
