# Blender v2.79 (sub 0) OBJ File: 'hangar.blend'
# www.blender.org
o Plane.013_Plane.015
v 9.917747 0.194879 -21.976719
v 9.917747 9.217619 -21.976719
v 6.648897 0.194879 -21.976719
v 6.648897 9.217619 -21.976719
v 5.020850 4.409286 -21.976719
v 5.014471 9.217619 -21.976719
vt 0.681296 0.062581
vt 0.681296 0.000000
vt 0.853077 0.000000
vt 0.853077 0.062581
vt 0.761532 0.093749
vt 0.853077 0.093871
vn 0.0000 0.0000 1.0000
s off
f 3/1/1 1/2/1 2/3/1 4/4/1
f 5/5/1 3/1/1 4/4/1 6/6/1
o Plane.012_Plane.014
v -9.695360 0.194879 -21.976719
v -9.695360 9.217619 -21.976719
v -6.426508 0.194879 -21.976719
v -6.426508 9.217619 -21.976719
v -4.785704 4.409287 -21.976719
v -4.792083 9.217619 -21.976719
vt 0.681296 0.375485
vt 0.681296 0.312904
vt 0.853077 0.312904
vt 0.853077 0.375485
vt 0.761532 0.281492
vt 0.853077 0.281614
vn 0.0000 0.0000 1.0000
s off
f 7/7/2 9/8/2 10/9/2 8/10/2
f 9/8/2 11/11/2 12/12/2 10/9/2
o Plane.011_Plane.013
v 4.830853 0.390954 11.931992
v 4.830853 0.390954 16.817144
v 10.054245 0.390954 5.764797
v 10.054245 0.390954 16.817146
v 4.830853 0.390954 10.836942
v 4.830853 0.390954 5.764796
vt 0.898775 0.375485
vt 0.898775 0.587078
vt 0.799329 0.587078
vt 0.799329 0.493553
vt 0.799329 0.472589
vt 0.799329 0.375485
vn 0.0000 -1.0000 0.0000
s off
f 15/13/3 16/14/3 14/15/3 13/16/3 17/17/3 18/18/3
o Plane.010_Plane.012
v 10.054245 4.049449 5.764797
v 10.054245 5.416068 5.764797
v 4.930724 2.361601 5.960370
v 4.762762 2.361601 5.631455
v 10.054245 2.245509 5.764797
v 10.054245 2.432355 5.764797
v 10.054245 6.590583 5.764797
v 10.122337 2.361601 5.631456
v 9.954374 2.361601 5.960371
v 4.830853 2.245509 5.764796
v 4.830853 0.390954 5.764796
v 4.830853 2.432355 5.764796
v 4.830853 5.416068 5.764796
v 4.830853 4.049449 5.764796
v 4.830853 6.590583 5.764796
v 10.054245 0.390954 5.764797
vt 0.798514 0.826178
vt 0.798514 0.803692
vt 0.897961 0.803692
vt 0.897961 0.826178
vt 0.798514 0.922381
vt 0.798514 0.886877
vt 0.897961 0.886877
vt 0.897961 0.922381
vt 0.798514 0.883300
vt 0.798514 0.852341
vt 0.897961 0.852341
vt 0.897961 0.883300
vt 0.897356 0.593375
vt 0.801712 0.593375
vt 0.798514 0.587078
vt 0.900554 0.587078
vt 0.854315 0.000000
vt 0.953674 0.000004
vt 0.951831 0.003747
vt 0.856272 0.003743
vn 0.0000 0.0000 -1.0000
vn 0.0000 -1.0000 0.0000
vn -0.0000 0.9404 0.3402
s off
f 31/19/4 33/20/4 25/21/4 20/22/4
f 29/23/4 28/24/4 23/25/4 34/26/4
f 30/27/4 32/28/4 19/29/4 24/30/4
f 32/28/4 31/19/4 20/22/4 19/29/4
f 28/24/4 30/27/4 24/30/4 23/25/4
f 27/31/5 21/32/5 22/33/5 26/34/5
f 24/35/6 30/36/6 21/37/6 27/38/6
o Plane.009_Plane.011
v 10.054245 0.390954 16.817146
v 10.054245 6.590583 16.817146
v 10.054245 0.390954 5.764797
v 10.054245 6.590583 5.764797
v 10.054245 2.245509 5.764797
v 10.054245 2.245509 16.817146
v 10.054245 2.245509 10.836943
v 10.054245 2.245509 11.931992
v 10.054245 2.432355 5.764797
v 9.954374 2.361601 5.960371
v 9.954374 2.361601 11.912308
v 9.954374 2.361601 10.850193
v 10.122337 2.361601 5.631456
v 10.122337 2.361601 11.945413
v 10.122337 2.361601 10.827909
v 10.054245 2.432355 16.817146
v 10.054245 5.416068 16.817146
v 10.054245 4.049449 16.817146
v 9.954374 2.361601 16.628006
v 10.122337 2.361601 16.946098
v 10.054245 5.416068 5.764797
v 10.054245 4.049449 5.764797
vt 0.763450 0.701567
vt 0.763450 0.680602
vt 0.763450 0.587078
vt 0.798514 0.587078
vt 0.798514 0.798671
vt 0.763450 0.798671
vt 0.681296 0.798671
vt 0.681296 0.587078
vt 0.703503 0.587078
vt 0.703503 0.798671
vt 0.759917 0.798671
vt 0.729342 0.798671
vt 0.729342 0.587078
vt 0.759917 0.587078
vt 0.761103 0.680346
vt 0.761103 0.701740
vt 0.897356 0.707322
vt 0.897356 0.686988
vt 0.900554 0.686562
vt 0.900554 0.707956
vt 0.897356 0.593375
vt 0.900554 0.587078
vt 0.897356 0.797602
vt 0.900554 0.803692
vt 0.854315 0.211593
vt 0.853077 0.118324
vt 0.856272 0.117690
vt 0.856272 0.207970
vt 0.853077 0.096930
vt 0.854315 0.000000
vt 0.856272 0.003743
vt 0.856272 0.097357
vn 1.0000 -0.0000 0.0000
vn 0.9997 0.0226 0.0000
vn 0.9755 -0.2196 0.0084
vn 0.9756 -0.2195 -0.0081
vn 0.8626 -0.5059 0.0000
vn 0.0000 -1.0000 0.0000
vn -0.2485 0.9686 -0.0089
vn -0.2489 0.9685 0.0086
s off
f 41/39/7 42/40/7 40/41/7 35/42/7 37/43/7 39/44/7
f 38/45/7 36/46/7 51/47/7 55/48/7
f 43/49/8 56/50/8 52/51/8 50/52/8 48/53/8 49/54/8
f 56/50/7 55/48/7 51/47/7 52/51/7
f 42/40/9 48/53/9 50/52/9 40/41/9
f 39/44/10 43/49/10 49/54/10 41/39/10
f 41/39/11 49/54/11 48/53/11 42/40/11
f 45/55/12 46/56/12 49/57/12 48/58/12
f 46/56/12 44/59/12 47/60/12 49/57/12
f 53/61/12 45/55/12 48/58/12 54/62/12
f 50/63/13 48/64/13 45/65/13 53/66/13
f 49/67/14 43/68/14 44/69/14 46/70/14
o Plane.008_Plane.010
v 4.830853 6.590583 16.817144
v 4.830853 0.390954 5.764796
v 4.830853 6.590583 5.764796
v 4.830853 2.245509 16.817144
v 4.830853 2.245509 5.764796
v 4.830853 0.390954 10.836942
v 4.830853 2.245509 10.836942
v 4.830853 0.390954 11.931992
v 4.830853 5.416068 16.199284
v 4.830853 2.245509 11.931992
v 4.830853 4.049449 5.764796
v 4.830853 5.416068 16.817144
v 4.830853 5.416068 5.764796
v 4.830850 5.416068 9.780561
v 4.830853 4.049449 16.199284
v 4.830853 2.432355 5.764796
v 4.930724 2.361601 10.850192
v 4.930724 2.361601 11.912307
v 4.762762 2.361601 10.827909
v 4.762762 2.361601 16.946098
v 4.762762 2.361601 11.945413
v 5.151745 2.245509 11.931992
v 5.151745 2.245509 10.836942
v 5.148191 0.392603 10.836942
v 5.151745 0.390754 11.931993
v 4.830850 4.049449 9.780561
v 4.830850 5.416068 10.481741
v 4.830850 4.049449 10.481741
v 4.830853 5.416068 11.967006
v 4.830853 4.049449 11.967007
v 4.830853 5.416068 12.670704
v 4.830853 4.049449 12.670705
v 4.830853 5.416068 13.729645
v 4.830853 4.049449 13.729646
v 4.830853 5.416068 14.434457
v 4.830853 4.049449 14.434458
v 4.830853 5.416068 15.494298
v 4.830853 4.049449 15.494298
v 4.830851 5.416068 8.724309
v 4.830851 4.049449 8.724309
v 4.830851 5.416068 8.019046
v 4.830851 4.049449 8.019046
v 4.830852 5.416068 6.945101
v 4.830852 4.049449 6.945101
v 4.830852 5.416068 6.240324
v 4.830852 4.049449 6.240324
v 5.027813 5.416068 16.199284
v 5.027813 4.049449 16.199284
v 5.027811 5.416068 10.481741
v 5.027811 4.049449 10.481741
v 5.027811 4.049449 9.780561
v 5.027813 5.416068 12.670704
v 5.027813 5.416068 11.967006
v 5.027813 4.049449 12.670705
v 5.027813 4.049449 11.967007
v 5.027813 5.416068 14.434457
v 5.027813 5.416068 13.729645
v 5.027813 4.049449 14.434458
v 5.027813 4.049449 13.729646
v 5.027813 5.416068 15.494298
v 5.027813 4.049449 15.494298
v 5.027811 5.416068 9.780561
v 5.027812 5.416068 8.724309
v 5.027812 4.049449 8.724309
v 5.027812 5.416068 8.019046
v 5.027812 4.049449 8.019046
v 5.027812 5.416068 6.945101
v 5.027812 4.049449 6.945101
v 5.027812 5.416068 6.240324
v 5.027812 4.049449 6.240324
v 4.742767 3.495506 13.007136
v 4.742767 3.669474 13.007136
v 4.742767 3.495506 12.915899
v 4.742767 3.669474 12.915899
v 4.834005 3.495506 13.007136
v 4.834005 3.669474 13.007136
v 4.834005 3.495506 12.915899
v 4.834005 3.669474 12.915899
v 4.830853 0.390954 16.817144
v 4.830853 2.432355 16.817144
v 4.830853 4.049449 16.817144
v 4.930724 2.361601 16.628006
v 4.930724 2.361601 5.960370
v 4.762762 2.361601 5.631455
vt 0.799328 0.472589
vt 0.764020 0.472589
vt 0.764020 0.375485
vt 0.799328 0.375485
vt 0.853077 0.373989
vt 0.853077 0.353024
vt 0.859186 0.353024
vt 0.859186 0.373989
vt 0.729676 0.452365
vt 0.729676 0.432144
vt 0.729676 0.418642
vt 0.729676 0.398081
vt 0.729676 0.384589
vt 0.729676 0.375485
vt 0.760463 0.375485
vt 0.760463 0.587078
vt 0.729676 0.587078
vt 0.729676 0.575249
vt 0.729676 0.561752
vt 0.729676 0.541462
vt 0.729676 0.527969
vt 0.729676 0.507696
vt 0.729676 0.494224
vt 0.729676 0.465789
vt 0.799329 0.587078
vt 0.764020 0.587078
vt 0.764020 0.493553
vt 0.799328 0.493553
vt 0.922304 0.342408
vt 0.922304 0.368572
vt 0.918554 0.368572
vt 0.918554 0.342408
vt 0.703657 0.384589
vt 0.703657 0.375485
vt 0.953674 0.000004
vt 0.953674 0.211596
vt 0.951831 0.207974
vt 0.951831 0.117694
vt 0.951831 0.097360
vt 0.951831 0.003747
vt 0.801712 0.686988
vt 0.801712 0.707322
vt 0.798514 0.707956
vt 0.798514 0.686562
vt 0.801712 0.797602
vt 0.798514 0.803692
vt 0.801712 0.593375
vt 0.798514 0.587078
vt 0.000000 0.948385
vt 0.000000 0.912880
vt 0.006109 0.912880
vt 0.006109 0.948389
vt 0.012219 0.912880
vt 0.012219 0.948385
vt 0.006177 0.948354
vt 0.006109 0.912880
vt 0.907305 0.342408
vt 0.907305 0.368572
vt 0.903555 0.368572
vt 0.903555 0.342408
vt 0.703657 0.587078
vt 0.703657 0.575249
vt 0.703657 0.494224
vt 0.703657 0.465789
vt 0.703657 0.527969
vt 0.703657 0.507696
vt 0.914804 0.342408
vt 0.914804 0.368572
vt 0.911054 0.368572
vt 0.911054 0.342408
vt 0.703657 0.561752
vt 0.703657 0.541462
vt 0.681296 0.375485
vt 0.703657 0.398082
vt 0.703657 0.418642
vt 0.703657 0.432144
vt 0.703657 0.452365
vt 0.681296 0.587078
vt 0.023465 0.912881
vt 0.023465 0.926353
vt 0.019718 0.926352
vt 0.019718 0.912880
vt 0.023465 0.926304
vt 0.023465 0.912880
vt 0.027215 0.912880
vt 0.027215 0.926304
vt 0.885425 0.353024
vt 0.885425 0.366518
vt 0.881679 0.366518
vt 0.881679 0.353024
vt 0.926054 0.368572
vt 0.926054 0.342408
vt 0.929804 0.342408
vt 0.929804 0.368572
vt 0.918554 0.342408
vt 0.918554 0.368572
vt 0.914804 0.368572
vt 0.914804 0.342408
vt 0.899805 0.342408
vt 0.899805 0.368572
vt 0.896055 0.368572
vt 0.896055 0.342408
vt 0.015969 0.939044
vt 0.015969 0.912880
vt 0.019718 0.912880
vt 0.019718 0.939044
vt 0.929804 0.368572
vt 0.929804 0.342408
vt 0.933554 0.342408
vt 0.933554 0.368572
vt 0.870436 0.366517
vt 0.870436 0.353024
vt 0.874186 0.353024
vt 0.874186 0.366517
vt 0.903555 0.342408
vt 0.903555 0.368572
vt 0.899805 0.368572
vt 0.899805 0.342408
vt 0.862936 0.366521
vt 0.862936 0.353024
vt 0.866686 0.353024
vt 0.866686 0.366521
vt 0.012219 0.939044
vt 0.012219 0.912880
vt 0.015969 0.912880
vt 0.015969 0.939044
vt 0.922304 0.368572
vt 0.922304 0.342408
vt 0.926054 0.342408
vt 0.926054 0.368572
vt 0.885425 0.366517
vt 0.885425 0.353024
vt 0.889172 0.353024
vt 0.889172 0.366517
vt 0.030961 0.912881
vt 0.030961 0.926304
vt 0.027215 0.926304
vt 0.027215 0.912880
vt 0.859186 0.366526
vt 0.859186 0.353024
vt 0.862936 0.353024
vt 0.862936 0.366526
vt 0.866686 0.366518
vt 0.866686 0.353024
vt 0.870436 0.353024
vt 0.870436 0.366518
vt 0.911054 0.342408
vt 0.911054 0.368572
vt 0.907305 0.368572
vt 0.907305 0.342408
vt 0.889172 0.366496
vt 0.889172 0.353024
vt 0.892922 0.353024
vt 0.892922 0.366496
vt 0.881679 0.353024
vt 0.881679 0.366521
vt 0.877932 0.366521
vt 0.877932 0.353024
vt 0.877932 0.353024
vt 0.877932 0.366526
vt 0.874186 0.366526
vt 0.874186 0.353024
vt 0.862660 0.366526
vt 0.862660 0.369857
vt 0.860923 0.369857
vt 0.860923 0.366526
vt 0.859186 0.373187
vt 0.859186 0.369857
vt 0.860923 0.369857
vt 0.860923 0.373187
vt 0.862660 0.369857
vt 0.862660 0.373164
vt 0.860923 0.373164
vt 0.860923 0.369857
vt 0.859186 0.369857
vt 0.859186 0.366526
vt 0.860923 0.366526
vt 0.860923 0.369857
vt 0.860923 0.374934
vt 0.859186 0.374934
vt 0.860923 0.373187
vt 0.862659 0.373187
vt 0.862659 0.374934
vt 0.860923 0.374934
vn -1.0000 0.0000 0.0000
vn 0.0000 -1.0000 0.0000
vn 0.0000 0.0000 1.0000
vn 0.5781 0.8160 0.0000
vn 0.0000 -0.0000 -1.0000
vn 0.0000 1.0000 0.0000
vn 1.0000 0.0000 0.0000
s off
f 62/71/15 63/72/15 61/73/15 58/74/15
f 66/75/16 63/76/16 79/77/16 78/78/16
f 82/79/15 96/80/15 98/81/15 100/82/15 102/83/15 67/84/15 72/85/15 136/86/15 137/87/15 71/88/15 94/89/15 92/90/15 90/91/15 88/92/15 86/93/15 84/94/15
f 135/95/15 60/96/15 66/97/15 64/98/15
f 89/99/17 90/100/17 115/101/17 113/102/17
f 102/83/15 101/103/15 69/104/15 67/84/15
f 72/105/18 136/106/18 138/107/18 74/108/18 73/109/18 139/110/18
f 72/85/15 61/73/15 63/72/15 66/97/15 60/96/15 136/86/15
f 73/111/16 74/112/16 77/113/16 75/114/16
f 74/112/16 138/115/16 76/116/16 77/113/16
f 139/117/16 73/111/16 75/114/16 140/118/16
f 64/119/19 66/120/19 78/121/19 81/122/19
f 63/123/17 62/124/17 80/125/17 79/126/17
f 97/127/17 98/128/17 122/129/17 121/130/17
f 137/87/15 68/131/15 65/132/15 71/88/15
f 86/93/15 85/133/15 83/134/15 84/94/15
f 90/91/15 89/135/15 87/136/15 88/92/15
f 93/137/17 94/138/17 117/139/17 116/140/17
f 94/89/15 93/141/15 91/142/15 92/90/15
f 59/143/15 69/104/15 101/103/15 99/144/15 97/145/15 95/146/15 70/147/15 83/134/15 85/133/15 87/136/15 89/135/15 91/142/15 93/141/15 65/132/15 68/131/15 57/148/15
f 86/149/20 88/150/20 110/151/20 111/152/20
f 82/79/15 70/147/15 95/146/15 96/80/15
f 83/153/16 70/154/16 118/155/16 105/156/16
f 98/81/15 97/145/15 99/144/15 100/82/15
f 90/157/20 92/158/20 114/159/20 115/160/20
f 71/161/19 65/162/19 103/163/19 104/164/19
f 85/165/17 86/166/17 111/167/17 109/168/17
f 70/169/17 82/170/17 107/171/17 118/172/17
f 100/173/19 99/174/19 123/175/19 124/176/19
f 92/177/19 91/178/19 112/179/19 114/180/19
f 99/181/16 101/182/16 125/183/16 123/184/16
f 84/185/19 83/186/19 105/187/19 106/188/19
f 65/189/16 93/190/16 116/191/16 103/192/16
f 96/193/19 95/194/19 119/195/19 120/196/19
f 88/197/19 87/198/19 108/199/19 110/200/19
f 102/201/20 100/202/20 124/203/20 126/204/20
f 82/205/20 84/206/20 106/207/20 107/208/20
f 95/209/16 97/210/16 121/211/16 119/212/16
f 91/213/16 89/214/16 113/215/16 112/216/16
f 101/217/17 102/218/17 126/219/17 125/220/17
f 87/221/16 85/222/16 109/223/16 108/224/16
f 94/225/20 71/226/20 104/227/20 117/228/20
f 98/229/20 96/230/20 120/231/20 122/232/20
f 127/233/15 128/234/15 130/235/15 129/236/15
f 129/237/19 130/238/19 134/239/19 133/240/19
f 133/241/21 134/242/21 132/243/21 131/244/21
f 131/245/17 132/246/17 128/247/17 127/248/17
f 129/237/16 133/240/16 131/249/16 127/250/16
f 134/251/20 130/252/20 128/253/20 132/254/20
l 90 132
o Plane.007_Plane.009
v 4.830853 0.390954 16.817144
v 4.830853 4.049449 16.817144
v 10.054245 4.049449 16.817146
v 10.054245 5.416068 16.817146
v 10.054245 2.432355 16.817146
v 4.830853 2.432355 16.817144
v 9.954374 2.361601 16.628006
v 4.930724 2.361601 16.628006
v 10.122337 2.361601 16.946098
v 4.830853 5.416068 16.817144
v 4.830853 6.590583 16.817144
v 4.830853 2.245509 16.817144
v 4.762762 2.361601 16.946098
v 10.054245 2.245509 16.817146
v 10.054245 0.390954 16.817146
v 10.054245 6.590583 16.817146
vt 0.681296 0.821157
vt 0.681296 0.798671
vt 0.780742 0.798671
vt 0.780742 0.821157
vt 0.681296 0.917360
vt 0.681296 0.881856
vt 0.780742 0.881856
vt 0.780742 0.917360
vt 0.681296 0.878279
vt 0.681296 0.847320
vt 0.780742 0.847320
vt 0.780742 0.878279
vt 0.801712 0.797602
vt 0.897356 0.797602
vt 0.900554 0.803692
vt 0.798514 0.803692
vt 0.953674 0.211596
vt 0.854315 0.211593
vt 0.856272 0.207970
vt 0.951831 0.207974
vn -0.0000 0.0000 1.0000
vn 0.0000 -1.0000 0.0000
vn 0.0000 0.9366 -0.3504
s off
f 144/255/22 156/256/22 151/257/22 150/258/22
f 155/259/22 154/260/22 152/261/22 141/262/22
f 145/263/22 143/264/22 142/265/22 146/266/22
f 143/264/22 144/255/22 150/258/22 142/265/22
f 154/260/22 145/263/22 146/266/22 152/261/22
f 148/267/23 147/268/23 149/269/23 153/270/23
f 146/271/24 145/272/24 147/273/24 148/274/24
o Plane.002_Plane.008
v -9.695358 0.217125 25.706741
v -9.695358 0.217125 -21.976719
v -9.695358 0.217125 18.319387
v 9.917747 0.217125 18.319387
v 9.917747 0.217125 16.249025
v -9.695358 0.217125 16.249025
v 9.917747 0.217125 -0.338011
v -9.695358 0.217125 -0.338011
v 9.917747 0.217125 -2.486910
v -9.695358 0.217125 -2.486909
v 9.917747 0.217125 -13.032475
v -9.695358 0.217125 -13.032474
v -9.695358 0.217125 -15.143874
v 9.917747 0.217125 -15.143876
v 9.917747 0.217125 -21.976719
v 9.917747 0.217125 25.706741
vt 0.373407 0.130812
vt 0.000000 0.130812
vt 0.000000 0.000000
vt 0.373407 0.000000
vt 0.373407 0.912880
vt 0.000000 0.912880
vt 0.000000 0.771453
vt 0.373407 0.771453
vt 0.000000 0.731816
vt 0.373407 0.731816
vt 0.000000 0.414264
vt 0.373407 0.414264
vt 0.000000 0.373124
vt 0.373407 0.373124
vt 0.000000 0.171234
vt 0.373407 0.171234
vn 0.0000 1.0000 0.0000
s off
f 169/275/25 170/276/25 171/277/25 158/278/25
f 157/279/25 172/280/25 160/281/25 159/282/25
f 159/282/25 160/281/25 161/283/25 162/284/25
f 162/284/25 161/283/25 163/285/25 164/286/25
f 164/286/25 163/285/25 165/287/25 166/288/25
f 166/288/25 165/287/25 167/289/25 168/290/25
f 168/290/25 167/289/25 170/276/25 169/275/25
o Plane.006
v 9.917747 0.217125 25.706741
v 9.917747 0.217125 -21.976719
v 9.917747 9.254557 25.706741
v 9.917747 9.254557 -21.976719
v 9.917747 9.254557 18.319387
v 9.917747 9.254557 16.249025
v 9.917747 9.254557 -0.338011
v 9.917747 9.254557 -2.486910
v 9.917747 9.254557 -13.032475
v 9.917747 0.217125 -15.143876
v 9.917747 9.254557 -15.143876
v 9.917747 0.217125 18.319387
v 9.917747 0.217125 16.249025
v 9.917747 0.217125 -0.338011
v 9.917747 0.217125 -2.486910
v 9.917747 0.217125 -13.032475
vt 0.551366 0.771453
vt 0.551366 0.912881
vt 0.379305 0.912881
vt 0.379305 0.771453
vt 0.551366 0.731816
vt 0.379305 0.731816
vt 0.551366 0.414264
vt 0.379305 0.414264
vt 0.551366 0.373125
vt 0.379305 0.373125
vt 0.551366 0.171234
vt 0.379305 0.171234
vt 0.551366 0.130812
vt 0.379305 0.130812
vt 0.551366 0.000000
vt 0.379305 0.000000
vn -1.0000 0.0000 0.0000
s off
f 184/291/26 173/292/26 175/293/26 177/294/26
f 185/295/26 184/291/26 177/294/26 178/296/26
f 186/297/26 185/295/26 178/296/26 179/298/26
f 187/299/26 186/297/26 179/298/26 180/300/26
f 188/301/26 187/299/26 180/300/26 181/302/26
f 182/303/26 188/301/26 181/302/26 183/304/26
f 174/305/26 182/303/26 183/304/26 176/306/26
o Plane.004_Plane.001
v -9.695358 0.217125 25.706741
v -9.695358 0.217125 -21.976719
v -9.695358 2.474541 25.706741
v -9.695358 2.474541 -21.976719
v -9.695358 0.217125 18.319387
v -9.695358 2.474541 18.319387
v -9.695358 0.217125 16.249025
v -9.695358 2.474541 16.249025
v -9.695358 0.217125 -0.338011
v -9.695358 2.474541 -0.338011
v -9.695358 0.217125 -2.486909
v -9.695358 2.474541 -2.486909
v -9.695358 0.217125 -13.032474
v -9.695358 2.474541 -13.032474
v -9.695358 0.217125 -15.143874
v -9.695358 2.474541 -15.143874
v -10.005127 0.217125 16.249025
v -10.005127 0.217125 18.319387
v -10.005127 2.474541 16.249025
v -10.005127 2.474541 18.319387
v -10.005127 0.217125 -2.486909
v -10.005127 0.217125 -0.338011
v -10.005127 2.474541 -2.486909
v -10.005127 2.474541 -0.338011
v -10.005127 0.217125 -15.143874
v -10.005127 0.217125 -13.032474
v -10.005127 2.474541 -15.143874
v -10.005127 2.474541 -13.032474
vt 0.939033 0.211596
vt 0.939033 0.342408
vt 0.896055 0.342408
vt 0.896055 0.211596
vt 0.896055 0.211596
vt 0.896055 0.353024
vt 0.853077 0.353024
vt 0.853077 0.211596
vt 0.792537 0.885106
vt 0.792537 0.925528
vt 0.786640 0.925528
vt 0.786640 0.885106
vt 0.996652 0.000000
vt 0.996652 0.317552
vt 0.953674 0.317552
vt 0.953674 0.000000
vt 0.780742 0.926246
vt 0.780742 0.885106
vt 0.786640 0.885106
vt 0.786640 0.926246
vt 0.900554 1.000000
vt 0.900554 0.798109
vt 0.943532 0.798109
vt 0.943532 1.000000
vt 0.373407 0.771453
vt 0.373407 0.731816
vt 0.379305 0.731816
vt 0.379305 0.771453
vt 0.792537 0.798671
vt 0.792537 0.841888
vt 0.786640 0.841888
vt 0.786640 0.798671
vt 0.786640 0.885106
vt 0.786640 0.841888
vt 0.792537 0.841888
vt 0.792537 0.885106
vt 0.798435 0.885106
vt 0.798435 0.924742
vt 0.792537 0.924742
vt 0.792537 0.885106
vt 0.798435 0.798671
vt 0.798435 0.841888
vt 0.792537 0.841888
vt 0.792537 0.798671
vt 0.780742 0.885106
vt 0.780742 0.841888
vt 0.786640 0.841888
vt 0.786640 0.885106
vt 0.798435 0.841888
vt 0.798435 0.885106
vt 0.792537 0.885106
vt 0.792537 0.841888
vt 0.373407 0.414264
vt 0.373407 0.373124
vt 0.379305 0.373124
vt 0.379305 0.414264
vt 0.780742 0.841888
vt 0.780742 0.798671
vt 0.786640 0.798671
vt 0.786640 0.841888
vt 0.373407 0.171234
vt 0.373407 0.130812
vt 0.379305 0.130812
vt 0.379305 0.171234
vn 1.0000 0.0000 0.0000
vn 0.0000 -1.0000 0.0000
vn 0.0000 1.0000 0.0000
vn 0.0000 0.0000 -1.0000
vn 0.0000 0.0000 1.0000
s off
f 203/307/27 190/308/27 192/309/27 204/310/27
f 189/311/27 193/312/27 194/313/27 191/314/27
f 204/315/28 202/316/28 216/317/28 215/318/28
f 195/319/27 197/320/27 198/321/27 196/322/27
f 200/323/28 198/324/28 212/325/28 211/326/28
f 199/327/27 201/328/27 202/329/27 200/330/27
f 193/331/29 195/332/29 205/333/29 206/334/29
f 194/335/30 193/336/30 206/337/30 208/338/30
f 195/339/31 196/340/31 207/341/31 205/342/31
f 196/343/28 194/344/28 208/345/28 207/346/28
f 198/347/30 197/348/30 210/349/30 212/350/30
f 199/351/31 200/352/31 211/353/31 209/354/31
f 202/355/30 201/356/30 214/357/30 216/358/30
f 197/359/29 199/360/29 209/361/29 210/362/29
f 203/363/31 204/364/31 215/365/31 213/366/31
f 201/367/29 203/368/29 213/369/29 214/370/29
o Plane.005_Plane.007
v 10.054245 6.590583 16.817146
v 4.830853 6.590583 16.817144
v 4.830853 6.590583 5.764796
v 10.054245 6.590583 5.764797
vt 0.998133 0.375485
vt 0.998133 0.587078
vt 0.898775 0.587074
vt 0.898775 0.375481
vn 0.0000 1.0000 0.0000
s off
f 219/371/32 218/372/32 217/373/32 220/374/32
o Plane.003_Plane.005
v -9.695358 2.452295 25.706741
v -9.695358 2.452295 -21.976719
v -9.695358 2.452295 18.319387
v -9.695358 2.452295 16.249025
v -9.695358 2.452295 -0.338011
v -9.695358 2.452295 -2.486909
v -9.695358 2.452295 -13.032474
v -9.695358 2.452295 -15.143874
v -9.695358 9.276802 25.706741
v -9.695358 9.276802 -21.976719
v -9.695358 9.276802 18.319387
v -9.695358 9.276802 16.249025
v -9.695358 9.276802 -0.338011
v -9.695358 9.276802 -2.486909
v -9.695358 9.276802 -13.032474
v -9.695358 9.276802 -15.143874
vt 0.681296 0.498616
vt 0.681296 0.539756
vt 0.551366 0.539756
vt 0.551366 0.498616
vt 0.681295 0.141428
vt 0.681295 0.181064
vt 0.551366 0.181064
vt 0.551366 0.141428
vt 0.681296 0.782068
vt 0.681296 0.912881
vt 0.551366 0.912881
vt 0.551366 0.782069
vt 0.681296 0.741647
vt 0.551366 0.741647
vt 0.681295 0.000000
vt 0.551366 0.000000
vn 1.0000 0.0000 0.0000
s off
f 225/375/33 226/376/33 234/377/33 233/378/33
f 223/379/33 224/380/33 232/381/33 231/382/33
f 228/383/33 222/384/33 230/385/33 236/386/33
f 226/376/33 227/387/33 235/388/33 234/377/33
f 224/380/33 225/375/33 233/378/33 232/381/33
f 221/389/33 223/379/33 231/382/33 229/390/33
f 227/387/33 228/383/33 236/386/33 235/388/33
o Plane.001_Plane.003
v 3.388531 5.801146 -21.976719
v 0.121046 6.703752 -21.976719
v -3.149172 5.801146 -21.976719
v 3.380046 9.217619 -21.976719
v 0.111194 9.217619 -21.976719
v -3.157657 9.217619 -21.976719
v -4.785704 4.409287 -21.976719
v -4.792083 9.217619 -21.976719
v -1.513703 6.490245 -21.976719
v -1.523232 9.217619 -21.976719
v 1.755149 6.490245 -21.976719
v 1.745620 9.217619 -21.976719
v 5.020850 4.409286 -21.976719
v 5.014471 9.217619 -21.976719
vt 0.761532 0.281492
vt 0.788032 0.250161
vt 0.853077 0.250323
vt 0.853077 0.281614
vt 0.801151 0.218850
vt 0.805216 0.187554
vt 0.853077 0.187742
vt 0.853077 0.219033
vt 0.801151 0.156270
vt 0.788032 0.124999
vt 0.853077 0.125162
vt 0.853077 0.156452
vt 0.761532 0.093749
vt 0.853077 0.093871
vn 0.0000 0.0000 1.0000
s off
f 243/391/34 239/392/34 242/393/34 244/394/34
f 245/395/34 238/396/34 241/397/34 246/398/34
f 247/399/34 237/400/34 240/401/34 248/402/34
f 239/392/34 245/395/34 246/398/34 242/393/34
f 238/396/34 247/399/34 248/402/34 241/397/34
f 237/400/34 249/403/34 250/404/34 240/401/34
o Plane
v 4.830853 3.281645 16.817144
v 10.054246 3.281645 16.817146
v 4.830853 3.281645 5.794104
v 10.054246 3.281645 5.794105
vt 1.000000 0.798109
vt 0.900554 0.798109
vt 0.900554 0.587078
vt 1.000000 0.587078
vn 0.0000 1.0000 0.0000
s off
f 251/405/35 252/406/35 254/407/35 253/408/35
