# Blender v2.79 (sub 0) OBJ File: ''
# www.blender.org
o Ramp
v 1.003955 0.043800 -1.490159
v 1.003955 1.043800 -1.490159
v 1.003955 0.043800 1.509841
v -0.996045 0.043800 -1.490159
v -0.996045 1.043800 -1.490159
v -0.996045 0.043800 1.509841
vt 0.333333 0.000000
vt 0.333333 0.585786
vt 0.000000 0.000000
vt 0.569036 0.707107
vt 0.804738 0.414214
vt 0.804738 1.000000
vt 0.333333 0.707107
vt 0.569036 0.414214
vt 0.569036 1.000000
vt 0.666667 0.000000
vt 0.666667 0.414214
vt 0.333333 0.414214
vt 0.000000 0.585786
vt 0.333333 0.000000
vt 0.666667 0.414213
vt 0.666667 0.000000
vt 1.000000 0.414213
vt 1.000000 0.000000
vn 0.0000 0.9487 0.3162
vn 1.0000 0.0000 0.0000
vn -1.0000 0.0000 0.0000
vn 0.0000 0.0000 -1.0000
vn 0.0000 -1.0000 0.0000
s off
f 3/1/1 2/2/1 6/3/1
f 1/4/2 2/5/2 3/6/2
f 4/7/3 6/8/3 5/9/3
f 2/10/4 1/11/4 4/12/4
f 2/2/1 5/13/1 6/3/1
f 4/12/4 5/14/4 2/10/4
f 6/15/5 4/16/5 3/17/5
f 1/18/5 3/17/5 4/16/5
