# Blender v2.79 (sub 0) OBJ File: ''
# www.blender.org
o Circle
v 0.000000 2.000000 0.000000
v -0.195090 1.980785 0.000000
v -0.382683 1.923880 0.000000
v -0.555570 1.831470 0.000000
v -0.707107 1.707107 0.000000
v -0.831470 1.555570 0.000000
v -0.923880 1.382683 0.000000
v -0.980785 1.195090 0.000000
v -1.000000 1.000000 0.000000
v -0.980785 0.804910 -0.000000
v -0.923880 0.617317 -0.000000
v -0.831470 0.444430 -0.000000
v -0.707107 0.292893 -0.000000
v -0.555570 0.168530 -0.000000
v -0.382683 0.076120 -0.000000
v -0.195090 0.019215 -0.000000
v 0.000000 0.000000 -0.000000
v 0.195091 0.019215 -0.000000
v 0.382684 0.076121 -0.000000
v 0.555571 0.168531 -0.000000
v 0.707107 0.292894 -0.000000
v 0.831470 0.444430 -0.000000
v 0.923880 0.617317 -0.000000
v 0.980785 0.804911 -0.000000
v 1.000000 1.000001 0.000000
v 0.980785 1.195091 0.000000
v 0.923879 1.382684 0.000000
v 0.831469 1.555571 0.000000
v 0.707106 1.707108 0.000000
v 0.555569 1.831470 0.000000
v 0.382682 1.923880 0.000000
v 0.195089 1.980786 0.000000
v -0.007677 1.038595 0.000000
v 0.000000 1.039351 0.000000
v -0.015059 1.036356 0.000000
v -0.021862 1.032719 0.000000
v -0.027826 1.027825 0.000000
v -0.032719 1.021862 0.000000
v -0.036356 1.015059 0.000000
v -0.038595 1.007677 0.000000
v -0.039351 1.000000 -0.000000
v -0.038595 0.992323 -0.000000
v -0.036356 0.984941 -0.000000
v -0.032719 0.978138 -0.000000
v -0.027826 0.972175 -0.000000
v -0.021862 0.967281 -0.000000
v -0.015059 0.963644 -0.000000
v -0.007677 0.961405 -0.000000
v 0.000000 0.960649 -0.000000
v 0.007677 0.961405 -0.000000
v 0.015059 0.963644 -0.000000
v 0.021863 0.967281 -0.000000
v 0.027825 0.972174 -0.000000
v 0.032719 0.978138 -0.000000
v 0.036356 0.984941 -0.000000
v 0.038595 0.992323 -0.000000
v 0.039351 1.000000 0.000000
v 0.038595 1.007677 0.000000
v 0.036356 1.015059 0.000000
v 0.032719 1.021863 0.000000
v 0.027826 1.027826 0.000000
v 0.021862 1.032719 0.000000
v 0.015059 1.036356 0.000000
v 0.007677 1.038595 0.000000
v -0.146628 1.737147 0.000000
v 0.000000 1.751588 0.000000
v -0.287620 1.694377 0.000000
v -0.417560 1.624923 0.000000
v -0.531453 1.531453 0.000000
v -0.624923 1.417560 0.000000
v -0.694377 1.287620 0.000000
v -0.737147 1.146628 0.000000
v -0.751588 1.000000 0.000000
v -0.737147 0.853373 -0.000000
v -0.694377 0.712380 -0.000000
v -0.624923 0.582440 -0.000000
v -0.531453 0.468547 -0.000000
v -0.417560 0.375077 -0.000000
v -0.287620 0.305623 -0.000000
v -0.146627 0.262853 -0.000000
v 0.000000 0.248412 -0.000000
v 0.146628 0.262853 -0.000000
v 0.287621 0.305623 -0.000000
v 0.417560 0.375077 -0.000000
v 0.531453 0.468547 -0.000000
v 0.624923 0.582440 -0.000000
v 0.694377 0.712380 -0.000000
v 0.737147 0.853373 -0.000000
v 0.751588 1.000001 0.000000
v 0.737146 1.146628 0.000000
v 0.694377 1.287621 0.000000
v 0.624922 1.417561 0.000000
v 0.531452 1.531454 0.000000
v 0.417559 1.624923 0.000000
v 0.287619 1.694377 0.000000
v 0.146626 1.737147 0.000000
v -0.098435 1.494868 0.000000
v 0.000000 1.504563 0.000000
v -0.193088 1.466155 0.000000
v -0.280320 1.419529 0.000000
v -0.356780 1.356780 0.000000
v -0.419529 1.280320 0.000000
v -0.466155 1.193088 0.000000
v -0.494868 1.098435 0.000000
v -0.504563 1.000000 0.000000
v -0.494868 0.901565 -0.000000
v -0.466155 0.806912 -0.000000
v -0.419529 0.719680 -0.000000
v -0.356780 0.643220 -0.000000
v -0.280320 0.580471 -0.000000
v -0.193088 0.533845 -0.000000
v -0.098435 0.505132 -0.000000
v 0.000000 0.495437 -0.000000
v 0.098436 0.505132 -0.000000
v 0.193088 0.533845 -0.000000
v 0.280320 0.580472 -0.000000
v 0.356780 0.643220 -0.000000
v 0.419529 0.719680 -0.000000
v 0.466155 0.806912 -0.000000
v 0.494868 0.901565 -0.000000
v 0.504563 1.000000 0.000000
v 0.494868 1.098436 0.000000
v 0.466155 1.193088 0.000000
v 0.419528 1.280321 0.000000
v 0.356779 1.356780 0.000000
v 0.280320 1.419529 0.000000
v 0.193087 1.466156 0.000000
v 0.098434 1.494868 0.000000
v -0.043046 1.216406 0.000000
v 0.000000 1.220645 0.000000
v -0.084437 1.203850 0.000000
v -0.122584 1.183460 0.000000
v -0.156020 1.156020 0.000000
v -0.183460 1.122584 0.000000
v -0.203849 1.084437 0.000000
v -0.216406 1.043046 0.000000
v -0.220645 1.000000 0.000000
v -0.216406 0.956954 -0.000000
v -0.203850 0.915563 -0.000000
v -0.183460 0.877416 -0.000000
v -0.156020 0.843980 -0.000000
v -0.122584 0.816540 -0.000000
v -0.084437 0.796150 -0.000000
v -0.043046 0.783594 -0.000000
v 0.000000 0.779355 -0.000000
v 0.043046 0.783594 -0.000000
v 0.084438 0.796151 -0.000000
v 0.122584 0.816540 -0.000000
v 0.156020 0.843980 -0.000000
v 0.183460 0.877416 -0.000000
v 0.203850 0.915563 -0.000000
v 0.216406 0.956954 -0.000000
v 0.220645 1.000000 0.000000
v 0.216406 1.043046 0.000000
v 0.203849 1.084438 0.000000
v 0.183460 1.122584 0.000000
v 0.156020 1.156020 0.000000
v 0.122584 1.183460 0.000000
v 0.084437 1.203850 0.000000
v 0.043045 1.216406 0.000000
vt 0.487460 0.515280
vt 0.484720 0.512540
vt 0.482567 0.509318
vt 0.481084 0.505738
vt 0.480328 0.501937
vt 0.480328 0.498063
vt 0.481084 0.494262
vt 0.482567 0.490682
vt 0.484720 0.487460
vt 0.487460 0.484720
vt 0.490682 0.482567
vt 0.494262 0.481084
vt 0.498062 0.480328
vt 0.501937 0.480328
vt 0.505738 0.481084
vt 0.509318 0.482567
vt 0.512540 0.484720
vt 0.515280 0.487460
vt 0.517433 0.490682
vt 0.518916 0.494262
vt 0.519672 0.498062
vt 0.519672 0.501937
vt 0.518916 0.505738
vt 0.517433 0.509318
vt 0.515280 0.512540
vt 0.512540 0.515280
vt 0.509318 0.517433
vt 0.505738 0.518916
vt 0.501937 0.519672
vt 0.498062 0.519672
vt 0.494262 0.518916
vt 0.490682 0.517433
vt 0.260493 0.791840
vt 0.322030 0.832958
vt 0.263208 0.943005
vt 0.181332 0.888297
vt 0.208160 0.739507
vt 0.111702 0.818667
vt 0.167042 0.677969
vt 0.056994 0.736791
vt 0.138720 0.609593
vt 0.019311 0.645815
vt 0.124281 0.537005
vt 0.000100 0.549236
vt 0.124281 0.462995
vt 0.000100 0.450764
vt 0.138720 0.390407
vt 0.019311 0.354184
vt 0.167042 0.322030
vt 0.056994 0.263208
vt 0.208160 0.260493
vt 0.111702 0.181332
vt 0.260493 0.208160
vt 0.181332 0.111702
vt 0.322030 0.167042
vt 0.263209 0.056994
vt 0.390407 0.138720
vt 0.354185 0.019311
vt 0.462995 0.124281
vt 0.450764 0.000100
vt 0.537005 0.124281
vt 0.549236 0.000100
vt 0.609593 0.138720
vt 0.645816 0.019311
vt 0.677970 0.167042
vt 0.736792 0.056994
vt 0.739507 0.208160
vt 0.818668 0.111703
vt 0.791840 0.260493
vt 0.888298 0.181333
vt 0.832958 0.322031
vt 0.943006 0.263209
vt 0.861280 0.390407
vt 0.980689 0.354185
vt 0.875719 0.462995
vt 0.999900 0.450765
vt 0.875719 0.537006
vt 0.999900 0.549237
vt 0.861280 0.609594
vt 0.980689 0.645816
vt 0.832958 0.677970
vt 0.943005 0.736792
vt 0.791839 0.739507
vt 0.888297 0.818668
vt 0.739506 0.791840
vt 0.818667 0.888298
vt 0.677969 0.832958
vt 0.736790 0.943006
vt 0.609592 0.861280
vt 0.645814 0.980689
vt 0.537004 0.875719
vt 0.549235 0.999900
vt 0.462994 0.875719
vt 0.450763 0.999900
vt 0.390406 0.861280
vt 0.354183 0.980689
vt 0.339212 0.695920
vt 0.380524 0.723524
vt 0.304079 0.660788
vt 0.276476 0.619476
vt 0.257462 0.573573
vt 0.247769 0.524842
vt 0.247769 0.475157
vt 0.257462 0.426427
vt 0.276476 0.380524
vt 0.304079 0.339212
vt 0.339212 0.304079
vt 0.380524 0.276476
vt 0.426427 0.257462
vt 0.475158 0.247769
vt 0.524843 0.247769
vt 0.573573 0.257462
vt 0.619476 0.276476
vt 0.660788 0.304080
vt 0.695921 0.339212
vt 0.723524 0.380524
vt 0.742538 0.426427
vt 0.752231 0.475158
vt 0.752231 0.524843
vt 0.742538 0.573573
vt 0.723524 0.619477
vt 0.695920 0.660788
vt 0.660787 0.695921
vt 0.619476 0.723524
vt 0.573572 0.742538
vt 0.524842 0.752231
vt 0.475157 0.752231
vt 0.426426 0.742538
vt 0.429687 0.585676
vt 0.447753 0.597747
vt 0.414324 0.570312
vt 0.402253 0.552247
vt 0.393938 0.532173
vt 0.389699 0.510864
vt 0.389699 0.489136
vt 0.393938 0.467826
vt 0.402253 0.447753
vt 0.414324 0.429687
vt 0.429687 0.414324
vt 0.447753 0.402253
vt 0.467826 0.393938
vt 0.489136 0.389699
vt 0.510864 0.389699
vt 0.532174 0.393938
vt 0.552247 0.402253
vt 0.570313 0.414324
vt 0.585676 0.429688
vt 0.597747 0.447753
vt 0.606062 0.467827
vt 0.610301 0.489136
vt 0.610300 0.510864
vt 0.606062 0.532174
vt 0.597747 0.552247
vt 0.585676 0.570313
vt 0.570312 0.585676
vt 0.552247 0.597747
vt 0.532173 0.606062
vt 0.510863 0.610301
vt 0.489136 0.610301
vt 0.467826 0.606062
vn 0.0000 -0.0000 1.0000
s off
f 33/1/1 35/2/1 36/3/1 37/4/1 38/5/1 39/6/1 40/7/1 41/8/1 42/9/1 43/10/1 44/11/1 45/12/1 46/13/1 47/14/1 48/15/1 49/16/1 50/17/1 51/18/1 52/19/1 53/20/1 54/21/1 55/22/1 56/23/1 57/24/1 58/25/1 59/26/1 60/27/1 61/28/1 62/29/1 63/30/1 64/31/1 34/32/1
f 65/33/1 66/34/1 1/35/1 2/36/1
f 67/37/1 65/33/1 2/36/1 3/38/1
f 68/39/1 67/37/1 3/38/1 4/40/1
f 69/41/1 68/39/1 4/40/1 5/42/1
f 70/43/1 69/41/1 5/42/1 6/44/1
f 71/45/1 70/43/1 6/44/1 7/46/1
f 72/47/1 71/45/1 7/46/1 8/48/1
f 73/49/1 72/47/1 8/48/1 9/50/1
f 74/51/1 73/49/1 9/50/1 10/52/1
f 75/53/1 74/51/1 10/52/1 11/54/1
f 76/55/1 75/53/1 11/54/1 12/56/1
f 77/57/1 76/55/1 12/56/1 13/58/1
f 78/59/1 77/57/1 13/58/1 14/60/1
f 79/61/1 78/59/1 14/60/1 15/62/1
f 80/63/1 79/61/1 15/62/1 16/64/1
f 81/65/1 80/63/1 16/64/1 17/66/1
f 82/67/1 81/65/1 17/66/1 18/68/1
f 83/69/1 82/67/1 18/68/1 19/70/1
f 84/71/1 83/69/1 19/70/1 20/72/1
f 85/73/1 84/71/1 20/72/1 21/74/1
f 86/75/1 85/73/1 21/74/1 22/76/1
f 87/77/1 86/75/1 22/76/1 23/78/1
f 88/79/1 87/77/1 23/78/1 24/80/1
f 89/81/1 88/79/1 24/80/1 25/82/1
f 90/83/1 89/81/1 25/82/1 26/84/1
f 91/85/1 90/83/1 26/84/1 27/86/1
f 92/87/1 91/85/1 27/86/1 28/88/1
f 93/89/1 92/87/1 28/88/1 29/90/1
f 94/91/1 93/89/1 29/90/1 30/92/1
f 95/93/1 94/91/1 30/92/1 31/94/1
f 96/95/1 95/93/1 31/94/1 32/96/1
f 66/34/1 96/95/1 32/96/1 1/35/1
f 97/97/1 98/98/1 66/34/1 65/33/1
f 99/99/1 97/97/1 65/33/1 67/37/1
f 100/100/1 99/99/1 67/37/1 68/39/1
f 101/101/1 100/100/1 68/39/1 69/41/1
f 102/102/1 101/101/1 69/41/1 70/43/1
f 103/103/1 102/102/1 70/43/1 71/45/1
f 104/104/1 103/103/1 71/45/1 72/47/1
f 105/105/1 104/104/1 72/47/1 73/49/1
f 106/106/1 105/105/1 73/49/1 74/51/1
f 107/107/1 106/106/1 74/51/1 75/53/1
f 108/108/1 107/107/1 75/53/1 76/55/1
f 109/109/1 108/108/1 76/55/1 77/57/1
f 110/110/1 109/109/1 77/57/1 78/59/1
f 111/111/1 110/110/1 78/59/1 79/61/1
f 112/112/1 111/111/1 79/61/1 80/63/1
f 113/113/1 112/112/1 80/63/1 81/65/1
f 114/114/1 113/113/1 81/65/1 82/67/1
f 115/115/1 114/114/1 82/67/1 83/69/1
f 116/116/1 115/115/1 83/69/1 84/71/1
f 117/117/1 116/116/1 84/71/1 85/73/1
f 118/118/1 117/117/1 85/73/1 86/75/1
f 119/119/1 118/118/1 86/75/1 87/77/1
f 120/120/1 119/119/1 87/77/1 88/79/1
f 121/121/1 120/120/1 88/79/1 89/81/1
f 122/122/1 121/121/1 89/81/1 90/83/1
f 123/123/1 122/122/1 90/83/1 91/85/1
f 124/124/1 123/123/1 91/85/1 92/87/1
f 125/125/1 124/124/1 92/87/1 93/89/1
f 126/126/1 125/125/1 93/89/1 94/91/1
f 127/127/1 126/126/1 94/91/1 95/93/1
f 128/128/1 127/127/1 95/93/1 96/95/1
f 98/98/1 128/128/1 96/95/1 66/34/1
f 129/129/1 130/130/1 98/98/1 97/97/1
f 131/131/1 129/129/1 97/97/1 99/99/1
f 132/132/1 131/131/1 99/99/1 100/100/1
f 133/133/1 132/132/1 100/100/1 101/101/1
f 134/134/1 133/133/1 101/101/1 102/102/1
f 135/135/1 134/134/1 102/102/1 103/103/1
f 136/136/1 135/135/1 103/103/1 104/104/1
f 137/137/1 136/136/1 104/104/1 105/105/1
f 138/138/1 137/137/1 105/105/1 106/106/1
f 139/139/1 138/138/1 106/106/1 107/107/1
f 140/140/1 139/139/1 107/107/1 108/108/1
f 141/141/1 140/140/1 108/108/1 109/109/1
f 142/142/1 141/141/1 109/109/1 110/110/1
f 143/143/1 142/142/1 110/110/1 111/111/1
f 144/144/1 143/143/1 111/111/1 112/112/1
f 145/145/1 144/144/1 112/112/1 113/113/1
f 146/146/1 145/145/1 113/113/1 114/114/1
f 147/147/1 146/146/1 114/114/1 115/115/1
f 148/148/1 147/147/1 115/115/1 116/116/1
f 149/149/1 148/148/1 116/116/1 117/117/1
f 150/150/1 149/149/1 117/117/1 118/118/1
f 151/151/1 150/150/1 118/118/1 119/119/1
f 152/152/1 151/151/1 119/119/1 120/120/1
f 153/153/1 152/152/1 120/120/1 121/121/1
f 154/154/1 153/153/1 121/121/1 122/122/1
f 155/155/1 154/154/1 122/122/1 123/123/1
f 156/156/1 155/155/1 123/123/1 124/124/1
f 157/157/1 156/156/1 124/124/1 125/125/1
f 158/158/1 157/157/1 125/125/1 126/126/1
f 159/159/1 158/158/1 126/126/1 127/127/1
f 160/160/1 159/159/1 127/127/1 128/128/1
f 130/130/1 160/160/1 128/128/1 98/98/1
f 33/1/1 34/32/1 130/130/1 129/129/1
f 35/2/1 33/1/1 129/129/1 131/131/1
f 36/3/1 35/2/1 131/131/1 132/132/1
f 37/4/1 36/3/1 132/132/1 133/133/1
f 38/5/1 37/4/1 133/133/1 134/134/1
f 39/6/1 38/5/1 134/134/1 135/135/1
f 40/7/1 39/6/1 135/135/1 136/136/1
f 41/8/1 40/7/1 136/136/1 137/137/1
f 42/9/1 41/8/1 137/137/1 138/138/1
f 43/10/1 42/9/1 138/138/1 139/139/1
f 44/11/1 43/10/1 139/139/1 140/140/1
f 45/12/1 44/11/1 140/140/1 141/141/1
f 46/13/1 45/12/1 141/141/1 142/142/1
f 47/14/1 46/13/1 142/142/1 143/143/1
f 48/15/1 47/14/1 143/143/1 144/144/1
f 49/16/1 48/15/1 144/144/1 145/145/1
f 50/17/1 49/16/1 145/145/1 146/146/1
f 51/18/1 50/17/1 146/146/1 147/147/1
f 52/19/1 51/18/1 147/147/1 148/148/1
f 53/20/1 52/19/1 148/148/1 149/149/1
f 54/21/1 53/20/1 149/149/1 150/150/1
f 55/22/1 54/21/1 150/150/1 151/151/1
f 56/23/1 55/22/1 151/151/1 152/152/1
f 57/24/1 56/23/1 152/152/1 153/153/1
f 58/25/1 57/24/1 153/153/1 154/154/1
f 59/26/1 58/25/1 154/154/1 155/155/1
f 60/27/1 59/26/1 155/155/1 156/156/1
f 61/28/1 60/27/1 156/156/1 157/157/1
f 62/29/1 61/28/1 157/157/1 158/158/1
f 63/30/1 62/29/1 158/158/1 159/159/1
f 64/31/1 63/30/1 159/159/1 160/160/1
f 34/32/1 64/31/1 160/160/1 130/130/1
